<?xml version="1.0" standalone="no"?>
<!DOCTYPE svg PUBLIC "-//W3C//DTD SVG 20010904//EN"
 "http://www.w3.org/TR/2001/REC-SVG-20010904/DTD/svg10.dtd">
<svg version="1.0" xmlns="http://www.w3.org/2000/svg"
 width="2397.000000pt" height="950.000000pt" viewBox="0 0 2397.000000 950.000000"
 preserveAspectRatio="xMidYMid meet">

<g transform="translate(0.000000,950.000000) scale(0.100000,-0.100000)"
fill="#000000" stroke="none">
<path d="M21775 9486 c-37 -17 -70 -52 -84 -89 -7 -18 -11 -168 -11 -422 l0
-394 -409 -3 c-396 -3 -410 -4 -437 -24 -15 -11 -37 -33 -48 -48 -20 -27 -21
-39 -21 -406 0 -367 1 -379 21 -406 11 -15 33 -37 48 -48 27 -20 41 -21 436
-24 l409 -3 3 -409 c3 -395 4 -409 24 -436 11 -15 33 -37 48 -48 27 -20 39
-21 406 -21 367 0 379 1 406 21 15 11 37 33 48 48 20 27 21 41 24 436 l3 409
409 3 c395 3 409 4 436 24 15 11 37 33 48 48 20 27 21 39 21 406 0 367 -1 379
-21 406 -11 15 -33 37 -48 48 -27 20 -41 21 -436 24 l-409 3 -3 409 c-3 395
-4 409 -24 436 -11 15 -33 37 -48 48 -26 20 -41 21 -394 23 -291 2 -373 0
-397 -11z"/>
<path d="M15313 9015 c-97 -21 -184 -69 -248 -136 -82 -86 -100 -132 -100
-254 0 -120 23 -182 90 -244 77 -71 142 -96 382 -146 187 -40 251 -64 292
-110 57 -65 49 -167 -18 -234 -59 -59 -121 -76 -271 -75 -150 1 -217 17 -342
80 -84 44 -88 45 -116 30 -63 -32 -59 -118 6 -165 102 -72 267 -114 452 -115
153 0 226 15 322 66 150 80 225 226 197 385 -28 158 -138 236 -425 298 -194
42 -259 61 -302 87 -102 62 -95 244 12 317 127 88 365 79 525 -19 56 -35 89
-38 122 -11 33 27 33 90 -1 126 -37 39 -175 102 -262 120 -93 18 -231 18 -315
0z"/>
<path d="M19713 8866 c-27 -24 -28 -27 -31 -144 l-4 -120 -73 -4 c-89 -4 -115
-22 -115 -79 0 -54 26 -69 116 -69 l72 0 4 -277 c5 -315 12 -350 79 -427 72
-81 204 -119 338 -96 92 15 111 33 111 99 0 67 -13 76 -92 63 -112 -19 -185 8
-219 81 -17 38 -19 68 -19 300 l0 257 133 0 c152 0 167 7 167 73 0 27 -7 41
-26 56 -24 19 -40 21 -150 21 l-122 0 -4 119 c-3 110 -5 121 -27 145 -33 35
-98 36 -138 2z"/>
<path d="M19300 8609 c-79 -15 -171 -69 -210 -122 l-35 -47 -5 66 c-6 79 -28
104 -92 104 -51 0 -84 -32 -93 -91 -3 -24 -5 -219 -3 -432 l3 -389 28 -24 c36
-31 104 -33 138 -5 24 19 24 19 29 308 5 272 6 290 27 329 44 82 119 125 246
140 76 9 102 29 102 84 0 34 -6 47 -28 66 -30 26 -38 27 -107 13z"/>
<path d="M16205 8586 c-13 -13 -26 -39 -30 -57 -3 -19 -5 -213 -3 -431 l3
-396 24 -26 c31 -33 106 -37 142 -7 l24 19 5 299 c5 275 7 301 26 343 68 148
277 177 346 48 22 -42 23 -53 28 -366 l5 -324 24 -19 c33 -27 111 -26 137 2
17 19 20 45 25 308 4 166 11 300 17 320 57 173 291 220 364 73 22 -45 23 -58
28 -365 l5 -319 24 -19 c35 -29 105 -26 137 6 l25 25 -3 343 c-3 295 -6 348
-21 388 -23 60 -68 113 -125 146 -40 24 -60 28 -142 31 -79 3 -105 0 -152 -18
-60 -22 -144 -89 -167 -134 l-15 -26 -25 47 c-30 54 -94 107 -149 123 -20 5
-69 10 -109 10 -118 0 -203 -43 -271 -135 l-21 -30 -1 58 c0 48 -4 62 -25 82
-33 34 -96 35 -130 1z"/>
<path d="M18059 8595 c-172 -43 -232 -90 -209 -161 19 -56 54 -57 170 -8 53
22 84 28 170 31 89 4 110 2 140 -15 50 -27 80 -90 80 -168 l0 -61 -152 -6
c-324 -14 -448 -78 -465 -239 -17 -168 111 -304 306 -324 108 -12 235 39 286
114 l23 33 7 -48 c9 -66 36 -93 92 -93 47 0 78 22 89 64 3 13 4 162 2 332 -5
355 -9 380 -83 462 -69 76 -122 96 -275 99 -82 1 -144 -3 -181 -12z m351 -559
c0 -138 -85 -240 -212 -253 -142 -14 -243 84 -206 200 24 75 108 103 321 106
l97 1 0 -54z"/>
<path d="M5240 7609 c-67 -13 -213 -89 -315 -165 -122 -91 -461 -433 -624
-629 -243 -292 -524 -681 -723 -1000 -159 -256 -339 -580 -419 -755 -23 -52
-45 -98 -49 -103 -3 -4 -32 2 -63 12 -100 35 -278 70 -408 82 -206 18 -447
-13 -648 -83 -361 -126 -760 -426 -986 -743 -166 -232 -245 -465 -245 -722 l0
-118 -40 -23 c-86 -49 -289 -211 -386 -307 -216 -217 -327 -446 -327 -680 -1
-186 61 -339 196 -482 221 -233 550 -352 974 -353 317 0 622 67 940 208 240
107 308 161 327 261 14 74 -33 165 -104 201 -74 38 -122 29 -278 -49 -241
-122 -438 -186 -668 -216 -431 -56 -827 64 -960 291 -26 44 -29 58 -29 139 0
81 3 97 33 160 93 195 302 387 635 580 84 48 154 90 156 92 3 1 -12 44 -33 94
-129 315 31 682 442 1018 212 173 443 284 675 326 150 27 363 17 521 -24 65
-16 121 -33 124 -36 3 -3 -16 -72 -42 -153 -129 -403 -256 -1070 -226 -1184
17 -61 121 -317 197 -483 246 -536 576 -970 891 -1172 87 -56 205 -111 298
-139 74 -22 109 -27 209 -27 104 0 131 3 202 27 249 81 418 293 484 606 28
135 31 384 5 535 -62 368 -215 744 -464 1138 -265 420 -559 730 -917 969 -66
43 -121 83 -123 87 -3 9 134 289 208 421 235 425 613 981 909 1335 274 327
538 581 683 656 l37 19 24 -33 c35 -47 53 -98 101 -296 66 -267 99 -338 194
-422 73 -64 112 -88 337 -209 116 -61 257 -140 314 -173 246 -146 414 -375
467 -636 24 -123 16 -301 -19 -399 -35 -99 -80 -173 -150 -243 -88 -87 -181
-131 -380 -179 -91 -21 -192 -50 -225 -63 -161 -66 -339 -239 -442 -430 -106
-195 -154 -453 -102 -541 13 -21 352 -738 754 -1595 402 -856 746 -1580 765
-1609 172 -261 566 -295 788 -67 52 54 167 246 919 1538 l858 1477 6192 0
c4289 0 6203 3 6229 11 43 12 102 59 121 98 49 97 10 215 -88 269 -29 16 -271
17 -3728 20 -2034 1 -3698 4 -3698 5 0 2 223 584 496 1293 373 968 497 1300
498 1335 1 56 -37 113 -93 136 -55 23 -222 14 -282 -15 -70 -34 -125 -87 -152
-145 -13 -28 -120 -348 -237 -709 -118 -362 -217 -658 -220 -658 -3 0 -91 298
-194 663 -103 364 -199 686 -213 715 -31 66 -104 126 -179 148 -82 24 -252 17
-291 -12 -43 -32 -67 -81 -66 -133 1 -34 89 -289 332 -961 183 -503 337 -929
343 -945 10 -28 -1 -58 -137 -373 l-148 -342 -2301 -2 -2301 -3 -51 -23 c-28
-13 -71 -44 -96 -70 -33 -34 -280 -450 -909 -1532 -475 -817 -876 -1497 -890
-1512 -23 -23 -36 -28 -78 -28 -42 0 -56 5 -80 27 -21 20 -236 469 -760 1585
l-730 1557 15 58 c36 139 135 287 245 368 51 38 75 47 177 70 327 74 475 147
639 318 127 133 210 292 255 491 27 121 29 354 4 471 -63 285 -177 497 -375
696 -142 141 -204 181 -706 450 -65 35 -136 80 -156 99 -34 33 -39 45 -74 195
-68 285 -122 416 -216 519 -64 69 -127 108 -214 131 -65 16 -88 17 -155 4z
m-1694 -3360 c178 -140 371 -348 520 -559 261 -369 432 -731 504 -1065 30
-139 38 -382 16 -485 -22 -103 -76 -209 -131 -258 -143 -126 -377 -60 -630
179 -253 240 -497 639 -697 1138 l-49 125 11 85 c38 296 101 578 201 904 l30
97 73 -49 c40 -27 108 -77 152 -112z"/>
<path d="M20590 7003 c-74 -38 -70 19 -70 -993 0 -1082 5 -1162 85 -1337 76
-164 206 -238 480 -272 180 -22 454 -7 524 28 102 53 155 208 98 292 -40 61
-74 70 -274 72 -170 2 -180 3 -222 27 -91 51 -111 131 -111 453 l0 227 184 0
c154 0 187 3 200 16 14 13 16 47 16 214 0 167 -2 201 -16 214 -13 13 -46 16
-200 16 l-184 0 0 475 c0 518 -1 525 -56 562 -24 16 -54 18 -224 21 -171 2
-199 1 -230 -15z"/>
<path d="M9950 6549 c-118 -13 -305 -45 -368 -64 -90 -27 -148 -95 -172 -200
-20 -88 24 -171 103 -193 29 -8 61 -5 164 18 194 43 334 62 478 62 192 2 278
-24 348 -101 45 -50 61 -104 62 -211 l0 -85 -90 -2 c-567 -15 -816 -82 -1007
-273 -85 -85 -133 -169 -164 -290 -23 -88 -23 -273 -1 -360 55 -208 195 -361
392 -427 73 -25 93 -27 230 -27 134 1 160 4 240 28 143 43 216 88 329 199 55
53 101 97 103 97 2 0 3 -65 3 -145 l0 -145 250 0 250 0 0 695 c0 739 -4 829
-46 973 -76 263 -222 379 -549 438 -108 19 -432 27 -555 13z m608 -1121 c17
-17 15 -179 -3 -256 -24 -102 -62 -171 -134 -243 -100 -100 -201 -139 -358
-139 -56 0 -88 5 -118 20 -99 48 -155 145 -155 269 0 87 21 148 72 206 96 109
246 151 549 154 93 1 139 -3 147 -11z"/>
<path d="M12410 6554 c-82 -16 -181 -49 -249 -84 -75 -37 -198 -128 -250 -184
-34 -36 -41 -33 -41 17 -1 57 -28 114 -78 159 -52 47 -93 58 -214 58 l-98 0 0
-1045 0 -1045 210 0 209 0 3 683 3 682 31 66 c46 97 147 199 241 246 165 82
371 46 455 -79 71 -105 77 -180 78 -945 l0 -653 261 0 261 0 -5 728 c-4 676
-6 734 -24 832 -39 200 -87 305 -187 406 -68 67 -153 114 -257 139 -63 16
-300 28 -349 19z"/>
<path d="M19043 6550 c-391 -55 -651 -281 -748 -652 -38 -146 -48 -240 -48
-423 0 -195 18 -321 64 -459 109 -326 336 -517 709 -597 91 -20 134 -23 325
-23 337 0 529 38 590 118 56 73 74 185 40 243 -44 74 -113 85 -285 44 -135
-32 -375 -40 -490 -17 -218 45 -347 163 -399 368 -17 66 -25 121 -22 155 1 9
142 13 594 15 652 3 624 1 700 67 57 51 71 101 63 231 -20 336 -108 564 -279
726 -102 98 -214 153 -382 191 -82 18 -341 26 -432 13z m330 -380 c110 -34
201 -136 236 -265 18 -70 30 -209 19 -223 -8 -9 -101 -12 -427 -10 l-416 3 -3
37 c-4 50 32 196 63 259 32 63 96 133 150 164 95 56 260 71 378 35z"/>
<path d="M16006 6497 c-49 -27 -79 -76 -80 -131 0 -57 545 -1745 582 -1800 37
-54 102 -102 164 -121 75 -22 379 -21 445 1 61 21 125 67 157 113 30 42 586
1759 586 1806 0 38 -37 102 -73 129 -25 19 -42 21 -150 21 -113 0 -126 -2
-172 -27 -61 -32 -128 -102 -143 -149 -6 -19 -97 -347 -202 -729 -104 -382
-197 -701 -204 -709 -18 -18 -43 -8 -56 21 -5 13 -93 338 -195 723 -103 385
-195 714 -206 732 -33 53 -107 112 -162 128 -31 9 -91 15 -151 15 -86 0 -107
-4 -140 -23z"/>
</g>
</svg>
